<?xml version="1.0" standalone="no"?>
<!DOCTYPE svg PUBLIC "-//W3C//DTD SVG 20010904//EN"
 "http://www.w3.org/TR/2001/REC-SVG-20010904/DTD/svg10.dtd">
<svg version="1.0" xmlns="http://www.w3.org/2000/svg"
 width="200.000000pt" height="200.000000pt" viewBox="0 0 200.000000 200.000000"
 preserveAspectRatio="xMidYMid meet">
<metadata>
Created by potrace 1.14, written by Peter Selinger 2001-2017
</metadata>
<g transform="translate(0.000000,200.000000) scale(0.100000,-0.100000)"
fill="#000000" stroke="none">
<path d="M733 1589 c-24 -5 -51 -12 -60 -18 -16 -8 -14 -10 10 -16 36 -9 32
-33 -9 -56 -53 -29 -98 -32 -129 -7 l-28 22 -23 -27 c-14 -16 -21 -36 -19 -48
5 -26 30 -55 48 -56 6 -1 35 -4 63 -8 106 -14 276 44 315 108 23 39 23 40 1
67 -23 28 -113 49 -169 39z"/>
<path d="M1317 1403 c-1 0 -31 -4 -67 -8 -88 -10 -209 -52 -300 -104 -112 -65
-301 -261 -252 -261 5 0 21 14 38 31 75 80 188 143 275 154 47 6 73 -26 65
-81 -7 -53 -41 -135 -95 -231 -23 -40 -41 -80 -41 -90 0 -10 16 -41 36 -68 40
-57 64 -108 84 -178 7 -26 18 -46 24 -44 15 4 99 253 118 350 22 112 23 244 2
295 -9 23 -20 42 -24 42 -4 0 -11 7 -14 16 -5 13 -1 14 27 9 17 -4 52 -16 77
-27 78 -35 94 -33 152 11 51 38 177 101 203 101 7 0 18 6 24 14 15 18 -9 33
-66 42 -21 3 -41 8 -45 10 -10 7 -216 23 -221 17z"/>
<path d="M420 1330 c-24 -34 -38 -95 -33 -144 12 -116 127 -231 294 -294 60
-22 136 -32 141 -18 2 5 -26 26 -62 48 -172 103 -190 224 -55 372 46 51 50 69
12 59 -38 -9 -193 -11 -236 -3 -38 7 -43 5 -61 -20z"/>
</g>
</svg>
